<?xml version="1.0" encoding="UTF-8" standalone="no"?>
<!-- Created with Inkscape (http://www.inkscape.org/) -->

<svg
   xmlns:dc="http://purl.org/dc/elements/1.1/"
   xmlns:cc="http://creativecommons.org/ns#"
   xmlns:rdf="http://www.w3.org/1999/02/22-rdf-syntax-ns#"
   xmlns:svg="http://www.w3.org/2000/svg"
   xmlns="http://www.w3.org/2000/svg"
   version="1.1"
   width="100"
   height="80"
   viewBox="0 0 100 80.000002"
   id="svg4370"
   xml:space="preserve"><metadata
     id="metadata4425"><rdf:RDF><cc:Work
         rdf:about=""><dc:format>image/svg+xml</dc:format><dc:type
           rdf:resource="http://purl.org/dc/dcmitype/StillImage" /><dc:title></dc:title></cc:Work></rdf:RDF></metadata><defs
     id="defs4423" /><g
     transform="translate(0,-1195.59)"
     id="Layer_1" /><g
     transform="translate(0,-1195.59)"
     id="Layer_2" /><g
     transform="translate(0,-1195.59)"
     id="Layer_6" /><g
     transform="translate(0,-1195.59)"
     id="Layer_5" /><g
     transform="translate(0,-1195.59)"
     id="Layer_3" /><g
     transform="translate(0,-1195.59)"
     id="Layer_4" /><g
     transform="translate(0,-1195.59)"
     id="Layer_7" /><g
     transform="translate(0,-1195.59)"
     id="Layer_8" /><g
     transform="translate(0,-1195.59)"
     id="Layer_9" /><path
     d="m 36.90625,0.5 -2.84375,0.0625 -2.25,0.28125 -4.40625,1.3125 -4.3125,1.5625 L 18.8125,5.3125 17.6875,4.78125 14.5,3.65625 12.375,3.15625 9.9375,2.71875 7.71875,2.53125 5.3125,2.46875 3.03125,2.625 0.6875,2.90625 0.53125,4.3125 l 0,1.625 0.25,2.15625 0.53125,2.34375 1,2.65625 1.09375,2.1875 L 4.875,17.625 6.4375,19.5625 8.28125,21.59375 8,22.53125 7.4375,25.25 7.1875,29.09375 6.3125,30.5 5.625,31.375 5.125,32.09375 4.71875,32.96875 4.3125,34.625 3.90625,37.5 3.375,42.0625 6.71875,39.375 6.65625,43.28125 6.59375,47.15625 6.5,51.0625 9.875,48.125 l 0.34375,4.375 0.375,2.5625 0.375,1.78125 0.8125,-0.9375 0.5625,-0.96875 0.59375,-0.6875 0.4375,-0.125 0.53125,0.03125 1.0625,0.4375 0.84375,0.59375 0.46875,0.75 0.0625,0.90625 0,1.03125 0.15625,0.96875 0.3125,0.9375 1.375,0.0625 1.40625,0.1875 1.625,0.5625 0.9375,0.5 0.84375,0.6875 0.78125,0.84375 0.6875,1.0625 0.6875,1.90625 0.28125,2.46875 -0.15625,2.09375 -0.40625,2.40625 2.46875,-2.25 2.4375,-2.25 0,1.5 0.375,3.75 0.5625,2.46875 0.90625,2.59375 0.9375,-2.875 0.71875,-2.09375 0.21875,-0.5625 0.09375,-0.0625 0.59375,1.25 1.21875,2.1875 2.03125,3.28125 0.5,-1.25 0.59375,-1.125 L 39.28125,76 40,75.28125 40.78125,74.9375 41.625,75.0625 42.53125,75.90625 42.875,76.5 l 0.46875,0.8125 0.8125,2.1875 1.65625,-3.375 1.6875,-3.34375 1,2.6875 1.03125,2.6875 0.71875,-1.21875 0.5625,-1.46875 0.5,-2.0625 0.1875,-2.3125 -0.1875,-2.8125 2.6875,2.125 2.6875,2.15625 -0.34375,-1.375 -0.1875,-1.4375 -0.09375,-1.8125 0.25,-2.28125 0.3125,-1.125 0.5,-1.09375 0.625,-0.875 0.75,-0.8125 0.96875,-0.71875 1.15625,-0.5625 2.03125,-0.53125 2.53125,-0.15625 0.15625,-1.90625 0.34375,-1.59375 0.6875,-1.25 0.65625,-0.40625 0.84375,0.0625 1.125,0.71875 1.375,1.4375 0.5,-1.34375 0.8125,-3.03125 0.3125,-2.4375 -0.03125,-1.125 -0.25,-1 3.125,4.25 0,-4.03125 0,-4.0625 0,-4.09375 3.375,2.09375 0.1875,-1.3125 0.0625,-1.46875 L 78.375,37.46875 77.9375,35.3125 77.0625,33.09375 75.875,31.25 74.1875,29.5 74.25,27.25 74.15625,25.46875 73.75,23.59375 l -0.6875,-2 L 74.4375,20 76.40625,17.4375 77.75,15.28125 l 1.28125,-2.5 0.9375,-2.375 0.6875,-2.6875 L 81,5.15625 l 0.125,-2.75 -1,-0.28125 -1.4375,-0.09375 -2.25,0.0625 -4.625,0.71875 -4.5625,1.125 -4.5,1.375 L 61.53125,4.53125 60,3.75 57.84375,2.875 55.4375,2.09375 52.53125,1.46875 49.96875,1.0625 47.0625,0.84375 42.875,0.6875 41.96875,0.65625 36.90625,0.5 z"
     transform="translate(-1.25e-6,0)"
     id="path5219"
     style="fill:#ffffff;stroke:#000000;stroke-width:1;stroke-miterlimit:10" /><polygon
     points="367.814,441.092 582.362,447.999 639.959,404.902 619.99,403.535 578.046,428.142 559.372,415.368 525.715,402.218 486.528,397.897 443.791,396.754 401.917,407.852 387.519,412.916 376.103,417.24 365.103,412.513 342.309,406.794 318.601,405.222 299.223,406.997 330.257,421.666 "
     transform="matrix(0.2360946,0,0,0.23610229,-69.973421,-93.186162)"
     id="polygon4386" /><path
     d="m 41.714793,1.0625 -4.65093,0 -4.743948,0 L 28.568165,2 24.847422,3.09375 21.157684,5.375 17.467947,7.59375 16.413736,6.96875 13.747203,5.5625 9.8094159,4 7.7630068,3.4375 5.6855916,3.09375 3.5151578,3.0625 l -2.046409,0.34375 3.1006197,3 2.9455888,3.09375 2.7905577,3.28125 1.426285,2 0.775155,1.6875 -0.775155,1 -0.806161,1.21875 -0.89918,1.6875 -0.8371671,1.96875 -0.7441487,2.375 -0.4340868,2.1875 -0.2790558,2.40625 -1.9223842,3.4375 -0.8681735,2.1875 -0.2170434,0.875 0,0.71875 0.7441487,-1.5 L 6.3367218,33.5625 7.4529449,32 8.4451432,30.90625 9.4993539,30 l 1.1162231,-0.5625 1.178236,-0.125 1.271254,1.125 1.984396,1.5 1.767354,1.0625 1.95339,0.78125 1.612322,0.8125 1.55031,1.3125 2.728545,2.71875 1.488298,1.25 1.612322,0.9375 3.441688,1.34375 1.426285,0.28125 0.186037,-0.09375 0.09302,-0.28125 -0.03101,-0.875 -0.24805,-1.28125 0.89918,0.09375 2.976595,2 3.007601,1.96875 2.20144,-1.03125 0,-41.875 z"
     id="path3804"
     style="fill:#ee8c22;stroke:#000000;stroke-width:0.99999994;stroke-miterlimit:10" /><path
     d="m 43.297072,1.0625 0,41.875 1.299605,-0.625 3.445465,-1.6875 0.785808,-0.40625 0.876478,2.75 1.148489,-0.21875 1.178711,-0.375 1.390276,-0.59375 1.601839,-1.03125 1.420499,-1.46875 0.846254,-1.65625 0.392904,-2.09375 2.357424,-0.90625 2.750327,-0.9375 2.780551,-1.15625 1.118265,-0.65625 0.876478,-0.75 1.208936,-1.25 1.239158,-0.84375 0.725361,-0.21875 0.725361,0.03125 0.725362,0.3125 0.695137,0.65625 1.118265,1.59375 1.027595,1.78125 1.088042,1.96875 0.997371,1.5 -0.36268,-1.8125 -0.846255,-2.09375 -1.299605,-2.46875 -0.634691,-1.09375 0.120893,-1.15625 0.03022,-1.34375 -0.18134,-1.71875 -0.423128,-1.9375 -0.755584,-2.125 -0.936925,-1.78125 -1.208935,-1.84375 0.06045,-0.75 0.27201,-1 1.148488,-2.4375 2.357424,-3.78125 2.750328,-3.46875 1.813402,-1.8125 1.541393,-1 L 77.35882,2.8125 74.155142,2.59375 69.017168,4.03125 63.909417,5.4375 59.64792,3.96875 55.325977,2.59375 51.366714,2.125 47.377228,1.59375 43.417965,1.0625 l -0.120893,0 z"
     id="path4388"
     style="fill:#ee8c22;stroke:#000000;stroke-width:0.99999994;stroke-miterlimit:10" /><path
     d="m 33.070779,22.575738 0.68792,1.618009 0.08599,1.090866 -0.247221,0.344169 -0.52669,0.106474 -1.689265,-0.255295 -2.598924,-0.615001 -4.144775,-1.407247 -2.21586,-1.1779 -0.785316,-0.650506 -0.49029,-0.68433 -0.727809,-0.691252 -0.507998,-0.32809 -0.394898,-0.101912 0.08874,1.422387 0.410507,1.460228 0.920887,1.677133 1.497678,1.575387 1.032052,0.735397 1.24799,0.671756 1.022637,0.280449 0.848801,0.09636 1.417778,0.01138 1.27904,0.307046 1.648823,1.139276 2.819685,2.684479 2.683917,2.819302 -1.330925,-2.536374 -0.732239,-1.610279 -0.28102,-1.051375 0.278705,-0.393767 0.498429,-0.231609 0.441103,-0.479782 0.106732,-1.138286 0.01699,-0.91167 0.111735,-0.599324 -0.03013,-0.52005 -0.408588,-0.673852 -2.034194,-1.982208 0,0"
     id="path4404" /><path
     d="m 61.811756,20.231479 0.225663,1.04113 -0.01619,1.092164 -0.367321,1.28723 -0.859138,1.280657 -1.530951,1.210347 -1.87481,0.914191 -1.783643,0.601809 -1.914821,0.548569 -1.855402,0.685325 -1.587472,0.924067 -1.583556,1.422072 -3.363404,3.669265 0,0 0.498843,-0.926227 0.905502,-2.210386 0.386373,-1.718794 -0.05802,-1.667627 -0.296918,-1.681975 0.01804,-1.341262 0.391345,-1.311147 0.804759,-1.475149 -0.0027,1.780595 0.197838,0.644849 0.447951,0.428122 1.119556,0.166017 1.906479,-0.369571 3.641154,-1.160269 3.477418,-1.578013 1.611749,-1.033271 1.461648,-1.222718 0,0"
     id="path4406" /><path
     d="M 40.804059,4.3540712 39.422905,4.2220893 34.950887,4.1628712 32.746395,4.3567205 30.521559,4.7621333 28.337441,5.4712469 26.445964,6.5377828 24.13,8.2724224 21.814024,10.00707 l 4.006832,-1.3336568 4.067813,-1.1360889 2.45886,-0.4723801 1.708945,-8.778e-4 3.966835,0.584347 3.992169,0.3819977 3.998952,0.3140378 1.246662,-0.1297261 3.075549,-0.075421 2.102072,0.1512453 2.187975,0.3863345 2.874609,0.6860356 2.8861,0.6441648 L 56.829008,7.4332231 53.110573,5.0995216 51.118104,4.0370187 49.165441,3.1800379 46.787123,2.5350604 45.764921,2.4974995 44.893452,2.6912147 41.054554,4.1115477 40.282525,4.2849056"
     id="path4415" /><path
     d="m 28.385954,12.36455 3.988638,0.618178 4.007857,0.497153 2.440466,0.173391 1.582379,-0.09476 -1.150727,0.570559 -1.292233,0.467537 -1.640212,0.37068 -2.060927,0.102071 -2.23149,-0.414531 -1.839664,-0.853825 -1.804087,-1.436464 0,0"
     id="path4417" /><path
     d="m 43.428485,12.36455 4.027098,-0.477564 4.050419,-0.106713 2.211595,0.235377 1.730229,0.571781 0.446675,0.336224 0.08218,0.296218 -0.233869,0.259994 -0.50148,0.227548 -1.61202,0.372877 -2.101159,0.288448 -3.442001,0.3647 -2.07196,0.350773 -0.471654,0.04861 -0.462149,-0.230418 -0.829972,-0.9619 -0.821935,-1.575953 0,0"
     id="path4419" /></svg>