<?xml version="1.0" encoding="utf-8"?>
<!-- Generator: Adobe Illustrator 16.0.0, SVG Export Plug-In . SVG Version: 6.00 Build 0)  -->
<!DOCTYPE svg PUBLIC "-//W3C//DTD SVG 1.1//EN" "http://www.w3.org/Graphics/SVG/1.1/DTD/svg11.dtd">
<svg version="1.1" xmlns="http://www.w3.org/2000/svg" xmlns:xlink="http://www.w3.org/1999/xlink" x="0px" y="0px"
	 width="2267.72px" height="1275.59px" viewBox="0 0 2267.72 1275.59" enable-background="new 0 0 2267.72 1275.59"
	 xml:space="preserve">
<g id="Layer_1">
</g>
<g id="Layer_2">
</g>
<g id="Layer_6">
</g>
<g id="Layer_5">
</g>
<g id="Layer_3">
</g>
<g id="Layer_4">
</g>
<g id="Layer_7">
</g>
<g id="Layer_8">
</g>
<g id="Layer_9">
</g>
<g id="Layer_10">
	<g>
		<path fill="#FFFFFF" stroke="#000000" stroke-miterlimit="10" d="M562.131,417.24c0,0-21.829-17.083-66.438-18.982
			c-26.576-0.949-51.253-2.847-64.541,0c-13.288,2.848-55.049,18.982-55.049,18.982s-31.322-17.639-76.88-10.243
			c0,0-8.543,38.742,32.27,79.068c0,0-4.745,11.851-4.745,31.783c-10.44,18.982-10.44,2.847-16.135,55.049l14.236-11.389
			l-0.948,49.355l14.236-12.34c0,0,1.898,29.424,4.746,37.018c5.694-4.747,5.694-13.29,12.338-11.391
			c6.644,1.899,11.39,5.696,10.44,11.391c-0.949,5.694,1.898,12.339,1.898,12.339s47.457-3.797,34.169,54.101l20.88-18.984
			c0,0-1.694,21.832,7.695,43.661c0,0,8.44-26.577,8.44-23.729c0,2.849,16.135,28.475,16.135,28.475s15.188-43.659,28.474,0
			l14.236-28.475l8.543,22.78c0,0,11.389-14.239,7.592-41.763l22.779,18.035c0,0-17.084-55.051,36.067-54.101
			c0,0-0.001-39.862,21.83-12.339c0,0,10.441-25.625,5.695-37.965l13.287,18.033v-51.531l14.237,8.819
			c0,0,7.592-33.218-17.084-53.15c0.949-16.136,0.001-21.803-4.745-33.682c6.644-8.081,35.117-35.605,34.168-81.163
			C639.959,404.902,624.772,396.36,562.131,417.24z"/>
		<polygon points="299.223,406.997 330.257,421.666 367.814,441.092 582.362,447.999 639.959,404.902 619.99,403.535 
			578.046,428.142 559.372,415.368 525.715,402.218 486.528,397.897 443.791,396.754 401.917,407.852 387.519,412.916 
			376.103,417.24 365.103,412.513 342.309,406.794 318.601,405.222 		"/>
		<path fill="#EE8C22" stroke="#000000" stroke-miterlimit="10" d="M370.836,426.846c0,0-40.146-25.901-68.207-17.699
			c0,0,42.737,39.284,47.054,55.256c0,0-18.131,19.426-20.29,54.392c-7.77,12.519-13.814,24.606-12.951,30.65
			c0,0,14.678-32.376,30.218-30.65c4.317,3.885,16.404,15.109,29.787,18.995c13.382,3.885,23.743,23.743,38.42,29.786
			s17.699,6.907,20.721,6.907c3.022,0,0-10.792,0-10.792l3.885,0.432l25.47,16.836l30.218-14.246l3.453-1.727l3.885,11.655
			c0,0,33.24-3.454,34.967-31.513c11.655-5.18,35.398-9.929,43.168-18.562s15.973-14.246,23.311-5.612
			c7.339,8.634,13.382,22.879,18.562,28.923c0-10.36-13.814-31.513-13.814-31.513s5.612-24.606-14.677-50.507
			c-1.295-11.655,29.787-55.445,43.601-60.314l-28.06-1.848l-44.895,12.087c0,0-35.398-12.087-37.557-12.087
			c-2.158,0-52.234-6.476-52.234-6.476h-40.579c0,0-30.649,7.339-31.945,8.634C401.054,409.147,370.836,426.846,370.836,426.846z"/>
		<path d="M499.479,558.942c0,0,10.361,17.268-25.901,31.082v7.771c0,0,43.168,6.043,78.567-30.218
			c6.043-9.497,17.268-23.311-11.224-25.038c0,0,32.808-12.087,28.491,10.361c0,0,21.584-11.224,7.771-44.032
			c0,0,7.77,1.727,12.95-16.404c0,0,1.727,30.218,0,43.168c-3.453,8.634-4.317,23.311-3.453,35.398c0,0-29.355,14.569-39.715,27.142
			l24.174-26.279c0,0,8.551-11.836-10.36-3.454c-13.814,12.951-24.175,18.994-24.175,18.994s-9.497,3.454-12.95,22.448
			c-3.454,18.995-10.36,40.579-10.36,49.212s3.453,25.038-20.721,31.945c-17.268,2.59-25.901,10.36-44.896,0
			c-12.951-4.317-20.721-9.498-23.311-24.175c-2.59-14.678-5.18-56.119-11.224-65.616c-6.044-9.498-31.082-31.082-35.398-33.672
			s-16.404-0.863-10.36,6.043c6.043,6.907,26.764,25.901,26.764,25.901s-36.261-24.174-41.442-26.765c0,0,2.59-39.715,0-50.939
			c-2.59-11.224-4.317-29.354-4.317-29.354s8.634,16.404,12.087,18.131c0,0-9.497,30.218,3.454,39.715
			c6.043,4.317,6.043,1.727,7.77-5.18c1.727-9.497,13.814-11.224,24.175-4.317c0,0-24.123,7.975-12.951,24.175
			c11.224,7.77,45.759,34.535,68.207,33.671c0,0,10.36,0.917,12.951-4.29c0.863-2.617,0.863-1.753-6.476-8.229
			c-7.338-6.475-20.721-7.771-17.699-24.174c0,0,14.678,13.382,23.311,12.087c7.771,1.727,8.634,2.158,16.836-1.295
			S496.457,562.396,499.479,558.942z"/>
		<path fill="#FFFFFF" d="M428.25,599.521h13.814l-3.022,31.513c0,0-11.224-6.044-10.792-15.757S428.25,599.521,428.25,599.521z"/>
		<path fill="#FFFFFF" d="M497.752,599.521h12.087c0,0,0,30.65-7.771,31.513C502.069,631.034,502.069,601.68,497.752,599.521z"/>
		<polygon fill="#FFFFFF" points="451.993,602.111 486.528,602.111 486.528,612.472 483.075,607.292 479.189,615.277 
			475.736,608.694 469.261,613.767 466.239,608.694 464.081,612.903 461.922,608.694 457.173,612.903 456.31,608.694 
			451.993,612.472 		"/>
		<path fill="#FFFFFF" d="M442.064,656.504l4.749,12.519h5.18h5.18h34.967l5.612-12.519c0,0,7.339,15.108,3.885,19.857
			c0,0-40.579,13.382-59.573,1.295c0,0-10.36-6.476-4.317-21.152C439.042,653.914,440.988,653.667,442.064,656.504z"/>
		<path fill="#FFFFFF" d="M449.403,540.38c0,0-9.065-12.087-32.809-18.994c-23.743-6.907-39.715-9.065-49.212-38.42
			c0.432-13.814-0.864-32.809,26.333-29.787c9.065,3.454,28.06,15.972,42.737,35.83c7.338,15.109,1.727,23.743,1.727,23.743
			L449.403,540.38z"/>
		<path fill="#FFFFFF" d="M491.277,540.38c0,0,2.158-11.224,37.125-20.721c12.087-2.59,38.852-13.228,42.737-33.594
			c0.432-13.46-1.727-25.115-12.087-30.295c-10.361-3.022-16.786-0.432-27.819,4.749s-26.574,22.879-30.459,31.081
			C496.889,499.801,504.659,522.681,491.277,540.38z"/>
		<path d="M436.453,490.304c0,0,7.77,13.814,0,13.382c-7.771-0.432-45.327-9.065-50.507-20.289
			c-4.749-5.181-6.907-4.749-6.907-4.749s-2.158,20.721,22.016,31.945c12.087,4.316,14.677-2.59,26.333,7.77
			c11.655,10.361,23.311,23.311,23.311,23.311s-10.36-18.562-9.929-22.016c0.432-3.454,6.475-0.442,5.612-9.502
			C445.518,501.097,451.993,504.118,436.453,490.304z"/>
		<path d="M558.188,480.375c0,0,6.043,15.109-10.792,25.038c-16.836,9.929-30.65,6.044-44.896,21.584s-14.246,15.541-14.246,15.541
			l0,0c0,0,9.929-16.404,7.339-27.628c-2.59-11.224-1.727-15.541,3.885-24.606c-0.432,9.497-1.295,15.973,15.541,11.224
			C531.855,496.779,546.964,491.167,558.188,480.375z"/>
		<path fill="#FFFFFF" d="M419.617,507.14c0,0-6.907-6.043-12.519-6.043c-5.612,0-7.771,2.59-4.749,6.043s7.339,5.18,12.519,4.749
			S423.581,510.039,419.617,507.14z"/>
		<path fill="#FFFFFF" d="M537.036,498.938c0,0-0.432,12.219-6.044,13.016c-5.612,0.798-10.792,1.793-11.224,0
			c-0.432-1.792-4.317-4.711,3.885-8.699S528.833,499.37,537.036,498.938z"/>
		<path fill="#B22225" d="M498.615,641.395c0,0-0.432-17.699-13.382-22.016c-8.202-1.295-10.792-0.864-12.519,0l-2.159,18.562
			l-3.885-21.153c0,0-9.497-3.022-15.972,4.317c-6.476,7.338-12.519,24.174-9.065,29.354c3.453,5.181,10.36,13.382,19.426,13.382
			s18.994,3.454,24.606,0C491.277,660.389,501.204,652.729,498.615,641.395z"/>
	</g>
</g>
<g id="Layer_11">
	<path d="M469.208,413.127c0,0-2.21-0.292-5.85-0.559c-12.075-0.883-39.891-1.482-54.965,9.808
		c-19.619,14.694-19.619,14.694-19.619,14.694s41.735-15.071,51.854-12.465s50.649,5.423,50.649,5.423s19.119-2.817,36.478,1.408
		s24.4,5.634,24.4,5.634s-48.306-38.028-65.626-30.986s-19.53,6.75-19.53,6.75"/>
	<path d="M416.61,447.055c0,0,42.664,7.297,50.909,5.057C467.519,452.112,439.146,469.59,416.61,447.055z"/>
	<path d="M480.324,447.055c0,0,37.736-6.356,50.909,0.944s-34.638,8.134-39.957,10.575S480.324,447.055,480.324,447.055z"/>
</g>
</svg>
