<?xml version="1.0" encoding="UTF-8" standalone="no"?>
<!-- Created with Inkscape (http://www.inkscape.org/) -->

<svg
   xmlns:dc="http://purl.org/dc/elements/1.1/"
   xmlns:cc="http://creativecommons.org/ns#"
   xmlns:rdf="http://www.w3.org/1999/02/22-rdf-syntax-ns#"
   xmlns:svg="http://www.w3.org/2000/svg"
   xmlns="http://www.w3.org/2000/svg"
   version="1.1"
   width="104.00516"
   height="101.55275"
   viewBox="0 0 104.00516 101.55275"
   id="svg2985"
   xml:space="preserve"><metadata
     id="metadata3040"><rdf:RDF><cc:Work
         rdf:about=""><dc:format>image/svg+xml</dc:format><dc:type
           rdf:resource="http://purl.org/dc/dcmitype/StillImage" /><dc:title></dc:title></cc:Work></rdf:RDF></metadata><defs
     id="defs3038" /><g
     transform="translate(-297.63175,-631.54363)"
     id="Layer_1" /><g
     transform="translate(-297.63175,-631.54363)"
     id="Layer_2" /><g
     transform="translate(-297.63175,-631.54363)"
     id="Layer_6" /><g
     transform="translate(-297.63175,-631.54363)"
     id="Layer_5" /><g
     transform="translate(-297.63175,-631.54363)"
     id="Layer_3" /><g
     transform="translate(-297.63175,-631.54363)"
     id="Layer_4" /><g
     transform="translate(-297.63175,-631.54363)"
     id="Layer_7" /><g
     transform="translate(-297.63175,-631.54363)"
     id="Layer_8" /><g
     transform="translate(-297.63175,-631.54363)"
     id="Layer_9" /><path
     d="M 79.04601,6.6126122 77.822175,5.8085325 76.287401,4.9724166 74.132963,3.9971245 71.355539,2.995312 67.95181,2.079635 63.918456,1.3627492 59.252156,0.95731045 48.153231,0.5332075 43.584674,0.55971394 41.661588,0.70218602 40.023474,0.95731045 35.790703,2.1989139 30.338524,4.1031503 23.622742,6.6126122 21.952576,5.8259195 19.954348,5.0660393 17.260229,4.2604571 13.929872,3.5581635 10.02293,3.1081488 5.5990567,3.0594036 3.2119126,3.2320665 0.71790562,3.5609182 0.51020671,5.5521407 l 0.0435961,2.29443 0.4114217,2.9873333 0.98139379,3.550504 0.7676072,1.945899 0.9859052,2.038043 1.2294714,2.11397 1.498306,2.17368 1.7924088,2.217173 2.1117801,2.244451 -0.220887,0.644469 -0.4859511,1.863205 -0.4859511,2.976644 -0.2208869,3.984782 -1.0299843,1.690513 -0.7947188,1.070858 -0.6157864,0.8124 -0.4931871,0.915136 -0.4269211,1.379069 -0.4169881,2.204197 -1.0295101,8.32856 4.2413274,-3.393121 -0.2824374,14.70432 4.241327,-3.676452 0.388798,4.665952 0.446281,3.685083 0.578896,2.677727 1.011667,-1.206476 0.720124,-1.232898 0.358425,-0.502083 0.414768,-0.359558 0.514188,-0.167324 0.656685,0.07462 1.360878,0.530352 1.042744,0.742404 0.61853,0.954455 0.117034,0.556747 -0.0288,0.60976 -0.03092,1.290073 0.207634,1.184159 0.388761,1.201923 0.599797,-0.01492 1.547541,0.107685 2.117513,0.458944 1.154443,0.432649 1.15527,0.606211 1.108878,0.808353 1.015262,1.039079 0.874427,1.298385 0.686368,1.586275 0.451089,1.902746 0.168587,2.247799 -0.161135,2.621434 -0.538079,3.023652 6.220772,-5.655898 -0.03515,1.11793 0.132462,2.947209 0.240609,1.969 0.41634,2.197617 0.63668,2.350002 0.901629,2.426151 1.257264,-3.852976 0.864368,-2.46994 0.284849,-0.686501 0.07981,-0.120592 0.02824,0.06043 0.751109,1.683643 1.652439,2.876431 2.403548,3.923472 0.768873,-1.829152 0.87159,-1.600509 1.116802,-1.44808 0.631709,-0.523976 0.670638,-0.314386 0.702107,-0.04763 0.726118,0.276278 0.74267,0.657352 0.751765,1.095587 0.7534,1.590982 0.747578,2.143534 4.241328,-8.483542 2.545213,6.786839 0.5125,-0.790975 1.042656,-2.355163 0.488179,-1.755824 0.34237,-2.136879 0.103776,-2.514602 -0.227599,-2.888996 6.786541,5.373163 -0.54786,-2.558285 -0.227532,-2.616272 0.03121,-1.47279 0.178673,-1.517938 0.364243,-1.514622 0.587919,-1.462839 0.849705,-1.362592 1.149597,-1.213878 1.487598,-1.016701 1.863707,-0.771057 2.277923,-0.476948 2.730247,-0.134373 0.10158,-1.727513 0.241316,-1.597734 0.469968,-1.587801 0.34455,-0.673163 0.430298,-0.530266 0.525575,-0.340564 0.63038,-0.104056 0.744714,0.179256 0.868575,0.509372 1.001966,0.886294 1.144884,1.31002 0.463951,-1.250327 0.914644,-3.026454 0.40264,-1.839652 0.246884,-1.876137 0.0016,-1.776773 -0.33306,-1.541559 3.958592,5.372567 0,-15.352616 4.241626,2.627442 0.238549,-1.639135 0.08944,-1.805375 -0.116008,-2.246096 -0.46062,-2.524457 -0.944398,-2.640453 -0.697105,-1.312987 -0.870236,-1.281101 -1.060764,-1.228918 -1.268687,-1.156442 0.09723,-3.098381 -0.167805,-2.394661 -0.485937,-2.156857 -0.857167,-2.38497 2.46541,-2.885239 1.699921,-2.244913 1.772817,-2.773215 1.666778,-3.296599 1.3818,-3.815062 0.52812,-2.100419 0.38978,-2.2281889 0.22906,-2.3553456 0.046,-2.4818871 -0.99824,-0.3004435 -1.417106,-0.1767351 -2.179293,-0.017683 -3.054131,0.2739161 -4.041619,0.6980609 -5.141753,1.254752 -6.354539,1.943989 0,0"
     id="path2999"
     style="fill:#ffffff;stroke:#000000;stroke-width:1;stroke-miterlimit:10" /><polygon
     points="443.791,396.754 401.917,407.852 387.519,412.916 376.103,417.24 365.103,412.513 342.309,406.794 318.601,405.222 299.223,406.997 330.257,421.666 367.814,441.092 582.362,447.999 639.959,404.902 619.99,403.535 578.046,428.142 559.372,415.368 525.715,402.218 486.528,397.897 "
     transform="matrix(0.29792971,0,0,0.29792971,-88.429516,-117.69558)"
     id="polygon3001" /><path
     d="M 22.053546,9.474525 20.054061,8.3069757 17.82824,7.1617828 15.028177,5.9216387 11.83623,4.7960394 8.4347554,3.9944804 6.7124321,3.7806836 5.006111,3.7264577 3.3385868,3.8579899 1.7326542,4.2014671 3.7422227,6.104549 l 4.5175128,4.54367 2.4908645,2.715692 2.267804,2.720203 1.761396,2.506169 0.602248,1.104525 0.369391,0.969063 -0.854076,1.067082 -0.888996,1.313501 -1.038214,1.815385 -1.068365,2.303701 -0.97945,2.778449 -0.77147,3.239631 -0.444423,3.687244 -1.6156496,2.747084 -1.2781044,2.542099 -0.7958494,2.180394 -0.1718572,0.905583 0.00297,0.756386 0.7556243,-1.499117 2.0096104,-3.259491 1.3544583,-1.709638 1.5232446,-1.453435 1.643794,-0.965133 0.85203,-0.226922 0.864078,-0.01781 1.368531,1.209739 2.055799,1.619737 2.562242,1.619792 1.41453,0.681811 1.473331,0.528096 1.457165,0.639783 1.398403,0.981923 2.722979,2.574262 2.795321,2.694811 1.488829,1.13261 1.583762,0.850745 4.38884,1.704046 1.055048,0.285403 0.729514,0.06835 0.258497,-0.138156 0.121335,-0.364228 -0.0422,-1.105245 -0.337629,-1.607629 1.157456,0.128706 7.58827,5.015944 9.00284,-4.244306 1.028751,-0.514525 1.157457,3.472371 0.80464,-0.127965 2.001847,-0.518496 1.256718,-0.46879 1.32423,-0.642136 1.314478,-0.840717 1.227463,-1.064537 0.927704,-1.114601 0.756789,-1.315146 0.536625,-1.531777 0.267215,-1.764494 3.148907,-1.153467 3.715653,-1.225837 3.498631,-1.418727 1.423004,-0.819361 1.074834,-0.912779 1.754331,-1.708055 0.883977,-0.629506 0.882476,-0.427562 0.876443,-0.186421 0.865878,0.09392 0.850782,0.413455 0.831153,0.772189 1.569498,2.178388 1.436799,2.419487 1.316193,2.274805 1.207681,1.744341 -0.176842,-1.289597 -0.466221,-1.47952 -1.414738,-3.082669 -2.0578,-3.536873 0.166799,-1.26602 0.04346,-1.460443 -0.129858,-1.903551 -0.413203,-2.265269 -0.806572,-2.545602 -1.309964,-2.744547 -1.923379,-2.862104 0.03709,-0.758096 0.241501,-0.951476 1.00958,-2.359049 1.567241,-2.760444 1.951574,-2.913757 L 95.515061,9.1311099 97.715314,6.6549742 99.779913,4.7697727 100.70718,4.126298 101.53553,3.7235878 93.175624,3.1730137 79.80007,6.7740901 74.446608,4.9735519 68.610724,3.1730137 53.048663,1.2436209 l -12.089689,0 -4.613889,1.1414804 -3.253495,0.8661515 -1.649981,0.5646932 -4.83849,2.9738599 -4.549573,2.6847191 0,0"
     id="path3003"
     style="fill:#ee8c22;stroke:#000000;stroke-width:1;stroke-miterlimit:10" /><path
     d="m 60.380118,48.829848 0.313515,0.868158 0.09347,0.976675 -0.213997,1.241942 -0.720413,1.434861 -1.42578,1.555432 -2.330099,1.603654 -3.43337,1.579529 0,2.315212 2.174324,0.11251 2.451145,-0.112557 3.123348,-0.450162 3.617711,-0.956563 1.938667,-0.720932 1.995567,-0.91083 2.030239,-1.121829 2.04268,-1.353928 2.032891,-1.607126 2.000872,-1.881423 1.430756,-2.286871 0.540588,-1.181121 0.21505,-1.129882 -0.06354,-0.527829 -0.203708,-0.493542 -0.363472,-0.452096 -0.54283,-0.403491 -1.702118,-0.63253 -2.65469,-0.352202 1.507166,-0.458169 1.517715,-0.32855 1.701588,-0.177828 1.641298,0.135668 0.721741,0.236263 0.615108,0.375677 0.477955,0.535438 0.310281,0.715547 0.112088,0.916001 -0.116625,1.136803 0.940466,-0.67522 0.877171,-0.898282 0.883208,-1.320289 0.690302,-1.778468 0.298457,-2.272818 -0.05988,-1.333093 -0.232448,-1.470244 -0.42988,-1.611916 -0.65218,-1.758111 0.385819,-0.004 0.964547,-0.41395 0.608871,-0.549106 0.645041,-0.877675 0.645041,-1.281605 0.608871,-1.760895 0.192947,4.983694 0.02412,4.240126 -0.217065,3.637209 -0.630946,2.226629 -0.365741,2.660648 -0.124586,2.853538 0.09252,2.805301 -1.414747,0.736738 -3.343935,1.901765 -3.922663,2.604115 -1.756337,1.420853 -1.394596,1.422937 7.202153,-7.829294 0.310028,-0.511964 0.198934,-0.472087 0.06057,-0.466941 -0.203533,-0.349883 -0.593369,-0.120912 -1.108938,0.219971 -1.750242,0.672766 -2.861652,2.511999 -2.282924,1.764372 -2.057875,1.382506 -0.458174,0.249209 -1.085139,0.972675 -0.642033,0.86313 -0.635997,1.170585 -0.575701,1.520239 -0.461146,1.912088 -0.916404,4.316666 -1.012765,4.171873 -0.819818,3.593032 -0.337564,2.580146 0.04821,2.282784 -0.102507,1.316271 -0.331596,1.352463 -0.669196,1.328358 -1.11531,1.243957 -1.669933,1.099262 -2.333069,0.89427 -3.464555,0.759581 -3.030424,0.68724 -1.518227,0.113033 -1.608671,-0.149203 -1.76544,-0.492824 -1.988535,-0.917827 -2.604451,-1.05307 -1.085168,-0.638077 -0.94047,-0.752621 L 39.520912,84.844107 38.869831,83.771983 38.36344,82.494903 38.001734,80.982728 37.406927,76.481229 36.715646,70.62941 35.831418,65.067011 35.286802,62.906763 34.657771,61.433772 33.740364,60.22192 32.4311,58.781006 29.191655,55.646041 26.048738,52.896969 24.111655,51.401883 23.53599,51.173309 l -0.702304,-0.104986 -1.422764,0.172827 -0.539578,0.283833 -0.304456,0.419458 0.02111,0.558093 0.43711,0.699738 4.662041,4.630014 3.311749,3.086664 -5.594561,-3.697569 -6.752242,-4.27652 0.289364,-6.334134 0.03617,-5.060085 -0.10399,-2.169835 -0.221545,-1.612187 -0.526498,-2.777208 -0.405947,-2.849493 -0.353717,-3.118728 1.414756,2.507935 1.189648,1.832738 0.996672,1.06109 -0.381811,1.450904 -0.550597,3.404196 -0.05977,1.989966 0.232634,1.94475 0.636563,1.721686 0.504609,0.721618 0.647416,0.599159 1.04889,0.590841 0.339085,0.02865 0.251682,-0.137142 0.349667,-0.735486 0.32559,-1.290138 0.330596,-0.952025 0.577764,-0.731985 0.782735,-0.508929 0.945509,-0.282857 1.066086,-0.05377 1.144468,0.178339 1.180653,0.413461 1.17464,0.6516 -1.070955,0.446662 -1.027519,0.559636 -1.078946,0.785005 -0.922925,1.011244 -0.559453,1.238358 -0.0786,0.704619 0.09007,0.761724 0.284659,0.81894 0.505182,0.876263 3.645384,2.580239 5.261076,3.400179 2.927454,1.600613 2.960615,1.317254 2.870188,0.871114 1.362563,0.217385 1.293612,0.04481 1.639768,-0.05731 1.290171,-0.366635 0.541125,-0.353851 0.387424,-0.500318 0.114479,-0.44068 -0.162818,-0.35401 -1.881054,-1.656974 -1.872833,-1.251947 -1.921153,-1.239936 -0.782744,-0.792529 -0.559681,-1.002004 -0.258236,-1.282305 0.121589,-1.633431 0.723471,0.616924 1.784538,1.328296 2.266794,1.255955 1.133363,0.35594 1.036873,0.04396 1.416838,0.301449 1.042982,0.08437 1.067059,-0.204994 1.489066,-0.566644 1.808554,-0.93231 1.663817,-1.12523 1.374452,-1.125285 0.940462,-0.932478 0,0"
     id="path3005" /><path
     d="m 39.158882,60.919538 4.115601,0 -0.900343,9.388659 -0.520483,-0.326573 -1.13541,-0.935495 -0.598597,-0.675363 -0.512681,-0.802718 -0.346884,-0.92178 -0.101203,-1.03255 0.04827,-3.432262 -0.04827,-1.261918 0,0"
     id="path3007"
     style="fill:#ffffff" /><path
     d="m 59.865593,60.919538 3.601076,0 -0.03618,1.430821 -0.253226,3.167091 -0.275836,1.707127 -0.411493,1.508172 -0.57428,1.098209 -0.356665,0.329429 -0.407536,0.14781 -0.16051,-4.453118 -0.381797,-3.1972 -0.319024,-1.150245 -0.424534,-0.588096 0,0"
     id="path3009"
     style="fill:#ffffff" /><polygon
     points="457.173,612.903 456.31,608.694 451.993,612.472 451.993,602.111 486.528,602.111 486.528,612.472 483.075,607.292 479.189,615.277 475.736,608.694 469.261,613.767 466.239,608.694 464.081,612.903 461.922,608.694 "
     transform="matrix(0.29792971,0,0,0.29792971,-88.429516,-117.69558)"
     id="polygon3011"
     style="fill:#ffffff" /><path
     d="m 43.274483,77.896466 1.414869,3.729782 1.543275,0 1.543276,0 10.417708,0 1.671982,-3.729782 0.964622,2.42742 0.446112,1.9673 -0.0076,0.860846 -0.245715,0.660425 -1.977434,0.566686 -2.146237,0.504892 -2.628534,0.471735 -2.893793,0.302935 -2.942017,-0.0015 -2.773202,-0.441595 -1.255471,-0.428219 -1.131879,-0.589106 -0.454143,-0.369787 -0.864084,-1.141462 -0.352172,-0.875157 -0.174339,-1.086133 0.09693,-1.303128 0.461644,-1.526143 0.31865,-0.444395 0.348899,-0.161929 0.336665,0.141233 0.281948,0.465091 0,0"
     id="path3013"
     style="fill:#ffffff" /><path
     d="m 45.460989,43.299677 -0.532521,-0.594821 -1.7021,-1.462942 -1.338644,-0.906303 -1.68984,-0.942477 -2.060636,-0.918365 -2.451034,-0.833969 -4.87724,-1.426776 -2.124355,-0.79326 -1.920879,-0.995222 -1.721926,-1.308718 -1.5275,-1.733749 -1.337597,-2.270317 -1.15222,-2.918418 0.140683,-3.24951 0.261726,-1.604425 0.529999,-1.46426 0.903784,-1.229138 0.625034,-0.496724 0.758048,-0.402334 0.904251,-0.296074 1.063642,-0.177945 2.658216,0.04598 2.513931,1.270093 3.225387,2.234603 1.755127,1.463945 1.783756,1.687016 1.762641,1.904066 1.69178,2.115099 0.649789,1.59635 0.352912,1.407959 0.120834,1.212031 -0.04644,1.008565 -0.335525,1.37658 -0.227041,0.47226 3.343963,8.231202 0,0"
     id="path3015"
     style="fill:#ffffff" /><path
     d="m 57.936498,43.299677 0.263235,-0.566704 0.489564,-0.640555 0.870881,-0.818402 1.35921,-0.951032 1.954555,-1.038445 2.656912,-1.080642 3.466284,-1.077622 1.533534,-0.402736 1.812375,-0.633389 1.960087,-0.869908 1.976672,-1.112293 1.862127,-1.360542 1.616454,-1.614659 1.239652,-1.874639 0.437547,-1.036645 0.294174,-1.10384 -0.07432,-2.88503 -0.194683,-1.32613 -0.32581,-1.226801 -0.476526,-1.111168 -0.646827,-0.979228 -0.836716,-0.830986 -1.046191,-0.666437 -2.135038,-0.375825 -1.933937,0.16679 -1.971475,0.625024 -2.247656,0.998879 -1.286198,0.740837 -1.355675,1.013592 -2.694048,2.538031 -2.294748,2.706789 -1.443972,2.260704 -0.290369,1.109688 -0.07938,1.450348 0.01606,3.645319 -0.133642,2.056295 -0.380813,2.1196 -0.742525,2.113567 -1.218779,2.038195 0,0"
     id="path3017"
     style="fill:#ffffff" /><path
     d="m 41.6028,28.380549 0.325535,0.641052 0.542558,1.40066 0.149203,0.740265 -0.04069,0.636264 -0.31197,0.434295 -0.664634,0.134359 -3.110884,-0.528537 -4.70236,-1.28809 -2.405416,-0.879911 -2.152206,-1.011039 -1.681967,-1.122582 -0.596824,-0.596998 -0.397879,-0.617539 -0.918429,-0.872268 -0.641047,-0.414006 -0.498325,-0.128594 0.01208,1.016843 0.164297,1.112801 0.40243,1.375052 0.740031,1.5318 1.1771,1.583045 1.71364,1.528791 2.349647,1.369032 1.228575,0.342056 1.028126,0.128077 1.714143,0.01207 0.815638,0.08291 0.874429,0.266782 0.99803,0.550114 1.186442,0.932906 2.550069,2.387427 2.22459,2.242662 2.17038,2.314951 -1.527225,-2.893717 -1.022881,-2.206496 -0.317797,-0.881717 -0.09024,-0.577291 0.119341,-0.30638 0.232361,-0.190502 0.628971,-0.292259 0.309209,-0.231204 0.247422,-0.374217 0.141934,-0.581954 -0.0073,-0.854412 -0.01112,-0.860227 0.09138,-0.623775 0.08032,-0.942002 -0.216033,-0.520133 -0.523475,-0.687492 -2.37922,-2.280871 0,0"
     id="path3019" /><path
     d="m 77.871273,25.422404 0.202941,0.749568 0.102216,0.830705 -0.03192,1.040205 -0.267027,1.178868 -0.603109,1.246695 -1.040165,1.243685 -1.578195,1.169839 -1.840786,0.935727 -1.768437,0.665938 -3.368068,0.986711 -1.623748,0.552871 -1.599637,0.74728 -1.587585,1.057739 -1.587592,1.484248 -4.244306,4.630126 0,0 0.450153,-0.815881 0.932464,-2.045734 0.451164,-1.295668 0.336618,-1.377059 0.1437,-1.383092 -0.127593,-1.313768 -0.379805,-2.176391 0.04218,-1.73025 0.500354,-1.609644 0.994732,-1.814573 -0.03621,1.915129 0.122085,0.759388 0.299942,0.589079 0.541097,0.390128 0.845551,0.162532 1.213304,-0.09371 1.644354,-0.378587 3.65544,-1.129457 3.402217,-1.346451 3.088721,-1.684025 1.407964,-1.006282 1.306986,-1.135893 0,0"
     id="path3021" /><path
     d="m 36.586855,33.396493 -1.237898,-0.900194 -1.203738,-0.618884 -1.288146,-0.281311 -1.053051,0.136643 -0.619005,0.37777 -0.136694,0.570661 0.393882,0.715315 0.745587,0.673135 0.878204,0.468234 0.998754,0.251266 1.107237,0.02223 1.03822,-0.153787 0.690815,-0.277913 0.164069,-0.189797 0.01594,-0.225983 -0.494181,-0.567388 0,0"
     id="path3023"
     style="fill:#ffffff" /><path
     d="m 71.569464,30.952874 -0.04623,0.572523 -0.227116,1.27736 -0.540612,1.321881 -0.429309,0.471288 -0.557415,0.234801 -2.25071,0.289476 -0.751584,-0.03068 -0.341669,-0.258794 -0.217079,-0.463104 -0.168815,-0.587396 0.06933,-0.339802 0.244164,-0.370267 1.229854,-0.831122 1.993485,-1.04037 0.683316,-0.157614 1.310393,-0.08818 0,0"
     id="path3025"
     style="fill:#ffffff" /><path
     d="m 60.122706,73.395046 -0.08039,-0.844012 -0.466232,-1.953287 -0.483297,-1.121335 -0.706346,-1.073108 -0.971592,-0.916367 -1.279034,-0.651111 -2.588302,-0.241211 -0.68527,0.07836 -0.45621,0.162851 -0.64323,5.530171 -1.157457,-6.302107 -0.472242,-0.106515 -1.183614,-0.07034 -0.749301,0.09521 -0.796019,0.244421 -0.799028,0.440365 -0.75833,0.683031 -1.380662,2.071756 -1.07912,2.542057 -0.524412,2.421508 0.02492,0.980907 0.258538,0.7292 0.958482,1.274148 1.308204,1.29814 1.621757,1.008721 0.917157,0.297886 0.981982,0.108001 2.049822,0.14471 2.001501,0.241183 1.808554,0.04824 0.786727,-0.13868 0.684255,-0.29545 1.416679,-1.003921 1.428661,-1.459139 0.571916,-0.895615 0.398622,-1.003826 0.166566,-1.110174 -0.124255,-1.214656 0,0"
     id="path3027"
     style="fill:#b22225" /><g
     transform="matrix(0.29792971,0,0,0.29792971,-88.429516,-117.69558)"
     id="Layer_11"><path
       d="m 469.208,413.127 c 0,0 -2.21,-0.292 -5.85,-0.559 -12.075,-0.883 -39.891,-1.482 -54.965,9.808 -19.619,14.694 -19.619,14.694 -19.619,14.694 0,0 41.735,-15.071 51.854,-12.465 10.119,2.606 50.649,5.423 50.649,5.423 0,0 19.119,-2.817 36.478,1.408 17.359,4.225 24.4,5.634 24.4,5.634 0,0 -48.306,-38.028 -65.626,-30.986 -17.32,7.042 -19.53,6.75 -19.53,6.75"
       id="path3030" /><path
       d="m 416.61,447.055 c 0,0 42.664,7.297 50.909,5.057 0,0 -28.373,17.478 -50.909,-5.057 z"
       id="path3032" /><path
       d="m 480.324,447.055 c 0,0 37.736,-6.356 50.909,0.944 13.173,7.3 -34.638,8.134 -39.957,10.575 -5.319,2.441 -10.952,-11.519 -10.952,-11.519 z"
       id="path3034" /></g></svg>