<?xml version="1.0" encoding="UTF-8" standalone="no"?>
<!-- Created with Inkscape (http://www.inkscape.org/) -->

<svg
   xmlns:dc="http://purl.org/dc/elements/1.1/"
   xmlns:cc="http://creativecommons.org/ns#"
   xmlns:rdf="http://www.w3.org/1999/02/22-rdf-syntax-ns#"
   xmlns:svg="http://www.w3.org/2000/svg"
   xmlns="http://www.w3.org/2000/svg"
   xmlns:sodipodi="http://sodipodi.sourceforge.net/DTD/sodipodi-0.dtd"
   xmlns:inkscape="http://www.inkscape.org/namespaces/inkscape"
   version="1.1"
   width="100"
   height="80"
   viewBox="0 0 100 80.000002"
   id="svg4370"
   xml:space="preserve"
   inkscape:version="0.48.5 r10040"
   sodipodi:docname="tiger_flattened_break.svg"><sodipodi:namedview
     pagecolor="#ffffff"
     bordercolor="#666666"
     borderopacity="1"
     objecttolerance="10"
     gridtolerance="10"
     guidetolerance="10"
     inkscape:pageopacity="0"
     inkscape:pageshadow="2"
     inkscape:window-width="1366"
     inkscape:window-height="737"
     id="namedview33"
     showgrid="false"
     inkscape:zoom="2.95"
     inkscape:cx="50.677966"
     inkscape:cy="12.881356"
     inkscape:window-x="0"
     inkscape:window-y="14"
     inkscape:window-maximized="0"
     inkscape:current-layer="svg4370" /><metadata
     id="metadata4425"><rdf:RDF><cc:Work
         rdf:about=""><dc:format>image/svg+xml</dc:format><dc:type
           rdf:resource="http://purl.org/dc/dcmitype/StillImage" /><dc:title /></cc:Work></rdf:RDF></metadata><defs
     id="defs4423" /><g
     transform="translate(0,-1195.59)"
     id="Layer_1" /><g
     transform="translate(0,-1195.59)"
     id="Layer_2" /><g
     transform="translate(0,-1195.59)"
     id="Layer_6" /><g
     transform="translate(0,-1195.59)"
     id="Layer_5" /><g
     transform="translate(0,-1195.59)"
     id="Layer_3" /><g
     transform="translate(0,-1195.59)"
     id="Layer_4" /><g
     transform="translate(0,-1195.59)"
     id="Layer_7" /><g
     transform="translate(0,-1195.59)"
     id="Layer_8" /><g
     transform="translate(0,-1195.59)"
     id="Layer_9" /><path
     d="M 42.877833,0.67688987 41.958024,0.64150745 36.899075,0.49999371 34.068894,0.57075058 31.804749,0.85377805 27.417969,2.1627793 23.101943,3.7194296 18.821294,5.3114583 17.689222,4.7807818 14.505268,3.6486727 12.382632,3.1533747 9.9416006,2.7288343 7.7128331,2.5165637 5.3071793,2.4811812 3.0430345,2.622695 0.6727578,2.9057224 0.53124875,4.320859 l 0,1.6274064 0.24764084,2.1580836 0.53065891,2.334975 0.9905635,2.653381 1.0966951,2.193462 1.485845,2.334983 1.5565996,1.945813 1.8396177,2.01657 -0.2830181,0.955217 -0.5660363,2.724138 -0.2476408,3.820868 -0.8844316,1.415137 -0.672168,0.88446 -0.4952817,0.707569 -0.4245272,0.88446 -0.3891497,1.662785 -0.4245272,2.865652 -0.530659,4.563815 3.36084,-2.688759 -0.070755,3.891625 -0.070755,3.891626 -0.070755,3.891625 3.3608404,-2.936407 0.3537718,4.386922 0.353773,2.547247 0.38915,1.804298 0.813677,-0.955217 0.566036,-0.955217 0.601413,-0.707568 0.424528,-0.106136 0.530659,0.03538 1.061318,0.424541 0.849054,0.601433 0.459905,0.742947 0.07075,0.919838 0,1.025975 0.14151,0.955217 0.318395,0.955217 1.379713,0.03537 1.41509,0.212271 1.627354,0.566055 0.91981,0.495297 0.849053,0.67219 0.778301,0.849082 0.707545,1.061353 0.672168,1.910434 0.283018,2.476488 -0.141509,2.087327 -0.424527,2.405732 2.476408,-2.264218 2.441031,-2.228841 0,1.485894 0.353773,3.750112 0.566036,2.476489 0.919809,2.582624 0.919809,-2.865652 0.742922,-2.087326 0.212264,-0.566054 0.106132,-0.07076 0.566036,1.238244 1.238204,2.193462 2.016504,3.290192 0.495282,-1.238244 0.601413,-1.132109 0.742923,-1.132109 0.742922,-0.707569 0.7783,-0.353784 0.849055,0.141514 0.884431,0.813703 0.353773,0.601434 0,-75.81594213 z"
     id="path5219"
     style="fill:#ffffff;stroke:#000000;stroke-width:1;stroke-miterlimit:10"
     inkscape:connector-curvature="0" /><path
     d="m 42.877833,0.67688987 0,75.81594213 0.459904,0.813703 0.813678,2.193461 1.662731,-3.360949 1.698109,-3.360949 0.990563,2.688759 1.02594,2.688759 0.707546,-1.202866 0.566036,-1.485893 0.495281,-2.051948 0.212264,-2.334975 -0.212264,-2.794895 2.688672,2.122705 2.688673,2.158083 -0.318396,-1.379758 -0.212263,-1.450515 -0.07075,-1.804299 0.247642,-2.264219 0.318395,-1.132109 0.495281,-1.09673 0.601414,-0.884461 0.7783,-0.813703 0.955186,-0.707569 1.167449,-0.566054 2.016505,-0.530677 2.547162,-0.141513 0.14151,-1.910434 0.353772,-1.592029 0.672168,-1.273623 0.672168,-0.389163 0.849055,0.07076 1.096695,0.707568 1.379713,1.450515 0.495281,-1.34438 0.813678,-3.042543 0.318395,-2.441111 -0.03538,-1.132109 -0.247641,-0.990595 3.148577,4.24541 0,-4.033139 0,-4.068519 0,-4.068517 3.36084,2.087326 0.176886,-1.309001 0.07075,-1.485893 -0.106132,-1.8043 -0.424527,-2.158082 -0.884431,-2.228841 -1.16745,-1.839678 -1.698108,-1.733541 0.07075,-2.264219 -0.106132,-1.76892 -0.389149,-1.875057 -0.707546,-2.016569 1.379714,-1.592029 1.981126,-2.547246 1.344337,-2.158083 1.273581,-2.511867 0.919806,-2.370354 L 80.66075,7.7171942 81.01452,5.1699486 81.120656,2.4104323 80.130091,2.1274049 78.679623,2.0212696 76.450856,2.0920264 71.816434,2.7995951 67.252767,3.9317042 62.759855,5.3114623 61.52165,4.5331368 60.000428,3.754812 57.842416,2.870352 55.436762,2.0920264 52.535826,1.4552154 49.953286,1.0660526 47.05235,0.85378204 42.877833,0.67688987 z"
     id="path4384"
     style="fill:#ffffff;stroke:#000000;stroke-width:1;stroke-miterlimit:10"
     inkscape:connector-curvature="0" /><polygon
     points="330.257,421.666 367.814,441.092 582.362,447.999 639.959,404.902 619.99,403.535 578.046,428.142 559.372,415.368 525.715,402.218 486.528,397.897 443.791,396.754 401.917,407.852 387.519,412.916 376.103,417.24 365.103,412.513 342.309,406.794 318.601,405.222 299.223,406.997 "
     transform="matrix(0.2360946,0,0,0.23610229,-69.973421,-93.186162)"
     id="polygon4386" /><path
     d="M 17.578959,7.5931579 16.543117,6.9743126 13.828466,5.5691292 9.8654336,4.0037777 7.8075387,3.4478611 5.704624,3.1063657 3.5413969,3.0604898 1.4756545,3.4143843 l 3.1043644,2.9917164 2.9919063,3.1046352 2.8087198,3.2710991 1.421055,2.013716 0.78315,1.664901 -0.784122,0.994 -0.799397,1.221903 -0.910281,1.68686 -0.8453153,1.987139 -0.738196,2.370896 -0.4483856,2.173504 -0.2646624,2.407774 -1.9519699,3.463016 -0.8879957,2.160014 -0.2046373,0.888065 -0.013059,0.72544 0.7690962,-1.499639 0.8763911,-1.465646 1.1287497,-1.579392 0.9838018,-1.100836 1.0708129,-0.893546 1.1335235,-0.569318 1.171932,-0.128158 1.293223,1.134763 1.981998,1.499388 1.792446,1.060859 1.964883,0.789753 1.634334,0.812218 1.557043,1.293546 2.738796,2.719583 1.511038,1.273599 1.629545,0.933597 3.477939,1.350416 1.414176,0.280342 0.204847,-0.109486 0.09615,-0.288642 -0.03345,-0.875881 -0.267553,-1.274008 0.917227,0.101992 3.006664,1.987509 3.006666,1.987509 3.567153,-1.681756 3.567154,-1.681756 0.815234,-0.40775 0.917227,2.751772 1.184037,-0.219256 1.228641,-0.356193 1.429588,-0.593565 1.65275,-1.029765 1.451093,-1.485449 0.886226,-1.664041 0.423185,-2.092022 2.418321,-0.888773 2.859281,-0.94056 2.866625,-1.146907 1.168233,-0.664249 0.879273,-0.742041 1.26928,-1.253421 1.27937,-0.840775 0.756517,-0.226611 0.747735,0.02611 0.734345,0.318655 0.716354,0.651038 1.163354,1.600575 1.071329,1.784677 1.123205,1.949504 1.0245,1.494031 -0.371743,-1.810234 -0.872888,-2.065481 -1.353837,-2.489867 -0.662942,-1.074709 0.143747,-1.168895 0.01345,-1.338143 -0.173278,-1.731294 -0.436154,-1.926211 -0.796513,-2.135383 -0.943901,-1.786041 -1.272506,-1.838851 0.05885,-0.757488 0.2959,-0.978953 L 71.80222,13.097625 74.247351,9.3230636 77.085472,5.8352355 78.970073,4.0267228 80.564509,3.0356742 77.252107,2.8175153 73.939699,2.5993572 68.639965,4.0262417 63.340232,5.4531245 58.924316,3.9687759 54.473226,2.5993572 50.359964,2.117146 46.250038,1.5977003 42.141061,1.0703585 l -4.790241,0 -4.790242,0 -3.794327,0.9398782 -3.747715,1.0986282 -3.698126,2.2757602 -3.741452,2.2085312 0,4.8e-6"
     id="path4388"
     style="fill:#ee8c22;stroke:#000000;stroke-width:1;stroke-miterlimit:10"
     inkscape:connector-curvature="0" /><path
     d="m 47.950878,38.781327 0.166869,0.390326 0.156169,1.045716 -0.08738,0.709915 -0.28381,0.803306 -0.544819,0.873208 -0.87041,0.919626 -1.865163,1.307455 -2.786535,1.28898 0,1.83475 1.417155,0.08677 1.616258,-0.03885 2.083433,-0.224593 2.352108,-0.483724 2.597138,-0.834998 2.247844,-1.008499 2.299432,-1.352188 1.984045,-1.478125 1.951831,-1.800341 1.325689,-2.183525 0.376478,-1.102488 -0.09869,-1.00578 -0.438543,-0.581361 -0.812243,-0.479395 -1.250201,-0.35395 -1.752414,-0.20503 1.502185,-0.439847 1.449243,-0.264141 1.533803,-0.03969 1.042033,0.23532 0.803327,0.555143 0.440982,0.957398 -0.045,1.44208 0.899437,-0.673448 0.79456,-0.901764 0.731354,-1.331747 0.432374,-1.671662 0.0041,-2.116218 -0.339962,-1.732166 -0.687159,-1.969052 0.305742,-0.0032 0.764357,-0.328045 0.4825,-0.435153 0.511163,-0.695538 0.511164,-1.015641 0.482499,-1.395468 0.173951,5.097925 -0.01479,2.772714 -0.15917,2.321425 -0.522587,1.88047 -0.288326,2.253359 -0.0043,4.22372 -3.33589,1.830931 -3.194032,2.06762 -1.592134,1.25053 -1.254441,1.259207 2.853674,-3.102265 2.853677,-3.102266 0.245682,-0.40572 0.205642,-0.744158 -0.16129,-0.277274 -0.470215,-0.09582 -0.878779,0.174321 -1.38698,0.533151 -2.748046,2.378437 -2.15263,1.587961 -0.806912,0.518129 -0.692201,0.443183 -0.676579,0.700708 -0.729193,1.15055 -0.534778,1.304165 -0.424673,1.701419 -0.832988,3.872376 -0.935522,3.850006 -0.485668,2.249144 -0.191763,1.64754 0.0186,2.272052 -0.213913,1.30367 -0.573535,1.298288 -0.620082,0.778611 -0.867231,0.719073 -1.154393,0.637301 -1.481566,0.533293 -2.85153,0.629898 -2.497064,0.543776 -1.158855,0.06031 -1.230711,-0.137766 -1.348704,-0.392454 -1.512842,-0.703763 -2.085365,-0.845526 -1.615873,-1.121688 -0.618573,-0.707888 -0.506583,-0.84402 -0.677207,-2.188651 -0.659573,-5.214617 -0.672024,-5.213902 -0.587614,-3.063459 -0.730715,-2.00011 -1.031765,-1.31158 -1.51225,-1.580253 -2.824658,-2.625942 -2.988604,-2.432262 -1.012727,-0.264339 -1.127471,0.136962 -0.427589,0.224931 -0.241266,0.332411 0.01672,0.442275 0.346388,0.554526 3.10604,3.11065 3.212797,3.004635 -3.237938,-2.144522 -3.250766,-2.125389 -3.29553,-2.049366 0.196632,-4.011448 0.0745,-4.014896 -0.06612,-2.311837 -0.205008,-1.688634 -0.604345,-3.450799 -0.414875,-3.479747 1.121124,1.987479 0.942737,1.452402 0.789814,0.840889 -0.383792,1.516259 -0.270622,1.561859 -0.137224,1.801262 0.06167,1.316956 0.253991,1.243442 0.497935,1.087598 0.793509,0.849426 0.831193,0.468229 0.468154,-0.08598 0.277094,-0.582857 0.258014,-1.022403 0.304822,-0.829288 0.543074,-0.612641 0.735126,-0.392689 0.88098,-0.169436 1.588702,0.198858 1.654883,0.785942 -1.194133,0.528605 -1.043044,0.662647 -0.940695,0.929892 -0.40853,0.732368 -0.167815,0.841678 0.15041,0.951312 0.546147,1.061271 3.72624,2.619711 3.854775,2.422784 2.03976,1.085812 2.05212,0.903804 2.301323,0.704721 2.129086,0.212969 1.299435,-0.04542 1.022397,-0.29055 0.428814,-0.280419 0.307015,-0.396489 0.09072,-0.349229 -0.129026,-0.280546 -1.490642,-1.313112 -1.604242,-1.061209 -1.605034,-1.089517 -0.535998,-0.615806 -0.372928,-0.768521 -0.160804,-0.96556 0.100369,-1.206924 0.754011,0.634791 1.785743,1.259453 1.53478,0.754518 0.744789,0.194267 0.684278,0.01076 1.949285,0.305752 0.845592,-0.162454 1.180012,-0.449052 1.264151,-0.638591 1.186142,-0.771077 2.135844,-1.851613 0,0"
     id="path4390"
     inkscape:connector-curvature="0" /><path
     d="m 31.134095,48.362123 3.261411,0 -0.356739,3.720145 -0.356739,3.720147 -0.412457,-0.258802 -0.899757,-0.741358 -0.880634,-1.171343 -0.274887,-0.730489 -0.0802,-0.818272 0,-3.720028 0,0"
     id="path4392"
     style="fill:#ffffff"
     inkscape:connector-curvature="0" /><path
     d="m 47.543143,48.362123 2.853675,0 -0.03424,1.26121 -0.239702,2.718331 -0.548275,2.339244 -0.439312,0.782185 -0.573159,0.339322 -0.147809,-3.805564 -0.304366,-2.366548 -0.2455,-0.838191 -0.321309,-0.429989 0,0"
     id="path4394"
     style="fill:#ffffff"
     inkscape:connector-curvature="0" /><polygon
     points="475.736,608.694 469.261,613.767 466.239,608.694 464.081,612.903 461.922,608.694 457.173,612.903 456.31,608.694 451.993,612.472 451.993,602.111 486.528,602.111 486.528,612.472 483.075,607.292 479.189,615.277 "
     transform="matrix(0.2360946,0,0,0.23610229,-69.973421,-93.186162)"
     id="polygon4396"
     style="fill:#ffffff" /><path
     d="m 34.395506,61.81594 1.121214,2.955765 1.222969,0 1.222971,0 4.12776,0 4.12776,0 1.324963,-2.955765 0.764415,1.923673 0.353522,1.559038 -0.006,0.682202 -0.194717,0.52337 -1.348295,0.391528 -3.325084,0.724711 -2.347209,0.301915 -2.438834,0.07049 -2.479825,-0.316876 -1.121859,-0.355134 -1.003759,-0.510891 -0.359886,-0.293048 -0.684744,-0.904581 -0.279078,-0.693542 -0.138156,-0.860734 0.07681,-1.032698 0.36583,-1.209433 0.252514,-0.352172 0.276485,-0.128326 0.266791,0.111921 0.22343,0.368574 0,0"
     id="path4398"
     style="fill:#ffffff"
     inkscape:connector-curvature="0" /><path
     d="M 36.128204,34.398796 35.294674,33.5337 34.189907,32.645656 32.570603,31.625794 30.70257,30.72822 28.382176,29.914269 25.738794,29.159736 23.390836,28.383367 21.08375,27.219982 20.063697,26.435157 19.130619,25.465084 17.84612,23.495312 16.763489,20.84322 l 0.059,-1.879059 0.241002,-1.888165 0.28109,-0.896935 0.435117,-0.804042 0.625104,-0.678782 0.851056,-0.521157 1.577349,-0.396867 2.147358,0.03223 1.683866,0.825469 2.137756,1.401537 1.656967,1.310482 1.709211,1.572123 1.481247,1.581157 1.420929,1.768777 0.585755,1.492643 0.26486,1.278387 0.01911,1.215439 -0.162052,0.88861 -0.299935,0.730698 1.324963,3.261517 1.324963,3.261517 0,0"
     id="path4400"
     style="fill:#ffffff"
     inkscape:connector-curvature="0" /><path
     d="m 46.01443,34.398796 0.101399,-0.259256 0.494904,-0.697183 1.174482,-1.014233 2.140129,-1.210404 2.106065,-0.856789 2.748037,-0.85441 1.921379,-0.550182 2.303385,-0.970282 1.931222,-1.124691 1.751493,-1.428756 1.387023,-1.764103 0.484491,-1.005041 0.310982,-1.088565 -0.04484,-2.135097 -0.343614,-1.913355 -0.371386,-0.966597 -0.522013,-0.85011 -0.69162,-0.717823 -0.880205,-0.569738 -1.774286,-0.30099 -1.608776,0.171255 -1.489695,0.494002 -1.695159,0.756983 -2.00019,1.314352 -2.052138,1.902294 -1.927769,2.241709 -1.211109,1.87994 -0.207516,0.723044 -0.07832,0.921451 0.01263,2.305992 -0.05162,1.927888 -0.288169,2.035528 -0.594277,1.834204 -1.034911,1.768963 0,0"
     id="path4402"
     style="fill:#ffffff"
     inkscape:connector-curvature="0" /><path
     d="m 33.070779,22.575738 0.68792,1.618009 0.08599,1.090866 -0.247221,0.344169 -0.52669,0.106474 -1.689265,-0.255295 -2.598924,-0.615001 -4.144775,-1.407247 -2.21586,-1.1779 -0.785316,-0.650506 -0.49029,-0.68433 -0.727809,-0.691252 -0.507998,-0.32809 -0.394898,-0.101912 0.08874,1.422387 0.410507,1.460228 0.920887,1.677133 1.497678,1.575387 1.032052,0.735397 1.24799,0.671756 1.022637,0.280449 0.848801,0.09636 1.417778,0.01138 1.27904,0.307046 1.648823,1.139276 2.819685,2.684479 2.683917,2.819302 -1.330925,-2.536374 -0.732239,-1.610279 -0.28102,-1.051375 0.278705,-0.393767 0.498429,-0.231609 0.441103,-0.479782 0.106732,-1.138286 0.01699,-0.91167 0.111735,-0.599324 -0.03013,-0.52005 -0.408588,-0.673852 -2.034194,-1.982208 0,0"
     id="path4404"
     inkscape:connector-curvature="0" /><path
     d="m 61.811756,20.231479 0.225663,1.04113 -0.01619,1.092164 -0.367321,1.28723 -0.859138,1.280657 -1.530951,1.210347 -1.87481,0.914191 -1.783643,0.601809 -1.914821,0.548569 -1.855402,0.685325 -1.587472,0.924067 -1.583556,1.422072 -3.363404,3.669265 0,0 0.498843,-0.926227 0.905502,-2.210386 0.386373,-1.718794 -0.05802,-1.667627 -0.296918,-1.681975 0.01804,-1.341262 0.391345,-1.311147 0.804759,-1.475149 -0.0027,1.780595 0.197838,0.644849 0.447951,0.428122 1.119556,0.166017 1.906479,-0.369571 3.641154,-1.160269 3.477418,-1.578013 1.611749,-1.033271 1.461648,-1.222718 0,0"
     id="path4406"
     inkscape:connector-curvature="0" /><path
     d="m 29.09589,26.550757 -0.980972,-0.713384 -0.953903,-0.49045 -1.020793,-0.222933 -0.834491,0.108286 -0.490531,0.299374 -0.108328,0.452236 0.312131,0.566871 0.590841,0.533443 0.695934,0.371064 0.791462,0.199123 0.877431,0.01762 0.822739,-0.121875 0.547435,-0.220239 0.142654,-0.329494 -0.391614,-0.44964 0,0"
     id="path4408"
     style="fill:#ffffff"
     inkscape:connector-curvature="0" /><path
     d="m 56.817882,24.614246 -0.216615,1.465988 -0.428408,1.04756 -0.340207,0.373485 -0.441725,0.186074 -1.783577,0.229403 -0.595592,-0.02431 -0.270757,-0.205088 -0.172023,-0.367 -0.133777,-0.465497 0.24843,-0.562713 0.974597,-0.658644 1.57974,-0.82447 1.579914,-0.194784 0,0"
     id="path4410"
     style="fill:#ffffff"
     inkscape:connector-curvature="0" /><path
     d="m 47.746892,58.24867 -0.116585,-0.998222 -0.243351,-0.996722 -0.453498,-1.105301 -0.916827,-1.237456 -0.643442,-0.495551 -0.785715,-0.364776 -2.051102,-0.191154 -0.904566,0.191154 -0.509729,4.382531 -0.917227,-4.994271 -0.374228,-0.08441 -0.937956,-0.05575 -1.224589,0.269146 -0.633191,0.348978 -0.600939,0.541287 -0.999585,1.466638 -0.818225,1.809149 -0.53233,2.138055 -0.0042,0.87421 0.214117,0.642494 0.811135,1.06983 1.118742,1.075352 1.231164,0.726003 1.425334,0.288336 2.930383,0.275745 1.592442,0.07716 0.690796,-0.104086 0.595722,-0.248818 1.222544,-0.878985 1.196937,-1.301708 0.640704,-1.418414 0.09695,-0.815536 -0.09971,-0.884909 0,0"
     id="path4412"
     style="fill:#b22225"
     inkscape:connector-curvature="0" /><path
     d="M 40.804059,4.3540712 39.422905,4.2220893 34.950887,4.1628712 32.746395,4.3567205 30.521559,4.7621333 28.337441,5.4712469 26.445964,6.5377828 24.13,8.2724224 21.814024,10.00707 l 4.006832,-1.3336568 4.067813,-1.1360889 2.45886,-0.4723801 1.708945,-8.778e-4 3.966835,0.584347 3.992169,0.3819977 3.998952,0.3140378 1.246662,-0.1297261 3.075549,-0.075421 2.102072,0.1512453 2.187975,0.3863345 2.874609,0.6860356 2.8861,0.6441649 L 56.829008,7.4332231 53.110573,5.0995216 51.118104,4.0370187 49.165441,3.1800379 46.787123,2.5350604 45.764921,2.4974995 44.893452,2.6912147 41.054554,4.1115477 40.282525,4.2849056"
     id="path4415"
     inkscape:connector-curvature="0" /><path
     d="m 28.385954,12.36455 3.988638,0.618178 4.007857,0.497153 2.440466,0.173391 1.582379,-0.09476 -1.150727,0.570559 -1.292233,0.467537 -1.640212,0.37068 -2.060927,0.102071 -2.23149,-0.414531 -1.839664,-0.853825 -1.804087,-1.436464 0,0"
     id="path4417"
     inkscape:connector-curvature="0" /><path
     d="m 43.428485,12.36455 4.027098,-0.477564 4.050419,-0.106713 2.211595,0.235377 1.730229,0.571781 0.446675,0.336224 0.08218,0.296218 -0.233869,0.259994 -0.50148,0.227548 -1.61202,0.372877 -2.101159,0.288448 -3.442001,0.3647 -2.07196,0.350773 -0.471654,0.04861 -0.462149,-0.230418 -0.829972,-0.9619 -0.821935,-1.575953 0,0"
     id="path4419"
     inkscape:connector-curvature="0" /></svg>